<svg width="805" height="709" viewBox="0 0 805 709" fill="none" xmlns="http://www.w3.org/2000/svg">
<path d="M370 508.5L368.5 493.5L364 483L359.5 474.5L353 465.5L361.5 446.5L380 451.5L396 463.5L404.5 477V483.5L395.5 489L377.5 494.5L369 497.5M370 508.5L368.5 522L365.5 534L359.5 545L350 557L337 564.5L322.5 569L304.5 567L290 561.5L280.5 556.5L270 570L252 588L232 603.5L211 615.5L186.5 625.5L163.5 631.5C157.333 631.667 144.7 632 143.5 632C142.3 632 124.667 629.667 116 628.5L93.5 623L71 610.5C65.8333 606.5 55 598 53 596C51 594 41.1667 583.167 36.5 578L22.5 555L14.5 535.5L9 514.5L5.5 492V470L8 445.5L13.5 425L22.5 404.5L32.5 383L45 364.5L59.5 347.5L78 330L97 318L114.5 309.5L136.5 302.5L156.5 298H182L204.5 302L227 310.5L244 320L259.5 331.5L272.5 346L280 354L294 326V293L287 204L284 174L262 158L252 153L239.5 136.5L242 129.5L248.5 127.5L276 137.5L278 133.5L278.5 117.5L285 102.5L293 91L302 78.5L318.5 61.5L338 48.5L376 25.5L423.5 11L473.5 5.5L524 9.5L556 30L611.5 35.5L658.5 41.5L680.5 45.5L698.5 54L714 65.5L725.5 79L734 96L737.5 111.5L734 128.5L725.5 143.5L715.5 144.5L715 149.5L705.5 159L700 163L696.5 170.5L688 166.5L680 171.5L673 168.5L669.5 173L668.5 179L661.5 181L654 189.5L646.5 187.5L632 171L631.5 187.5L630 202.5L622.5 225.5L624.5 236.5L632 253.5L664 267.5L675.5 271.5L710 275L721 270.5L732 271L759.5 265.5L778.5 273.5L787 285.5L797 292.5L799.5 305L797 314L793.5 317V321.5L786 323.5L783.5 333.5H777L775.5 339.5L768 342L758 335.5L744 339L662.5 330.5L624.5 353L651 354.5L674 359L692.5 365L710.5 375.5L729.5 387.5L753 410.5L774 444L785.5 472.5L790.5 504L791.5 539L785.5 571.5L774.5 604L757.5 630L735.5 654L707 676.5L676 693.5L644 700L609.5 703L574 699.5L548 692.5L522.5 678.5L498 658.5L477 633.5L461 605.5L451 576L448 546.5V519L452.5 493.5L461 468.5L475 440L494.5 415.5L518.5 392L548 374L543.5 342L507.5 347.5L468 355L461 357.5C461 357.5 449.349 371.228 442.5 380.5C438.67 385.685 433 394 433 394L428 409L426.5 416L435 434.5L443 455L452.5 468.5L458.5 474.5M370 508.5L423 501.5L425 496.5L451.5 499M309 202.5L313 249.5L328.5 282L341 293.5L358.5 303.5L370 293.5L350.5 271L347.5 261L328 237.5L309 202.5ZM422.5 232.5L459.5 241L474 247L481.5 254.5L464.5 269.5L452.5 283.5L443 300L437.5 278.5L431.5 260.5L422.5 232.5ZM527 295.5L574 286L566.5 270L562.5 247.5L556 231.5L549.5 214L543.5 194L539.5 178L522 173.5L507 166.5L483 159L505 180L523.5 197.5L540 218L553 239L557 247L557.5 254.5L551 264.5L541 279L527 295.5ZM557.5 408L591 501L586.5 508.5L582 517L579 524L493.5 585L485 563L481 535.5L486 507L494 483L504.5 459L520 437L539 422L557.5 408ZM605.5 392.5L612 437L617 390L605.5 392.5ZM652.5 392.5L675 397.5L699.5 412.5L713.5 423L728 437L741.5 457L751.5 480L758 509.5L759 539L754 567L743 587.5L657 524.5L654 511L646 501L652.5 392.5ZM595.5 563.5L505 612L522 632L542 648L567.5 660L591.5 667L620 669L651.5 663L676 654L704 638.5L724.5 612L639.5 561.5L624.5 567H611L595.5 563.5Z" stroke="white" stroke-width="10"/>
</svg>
